<mxfile host="app.diagrams.net" agent="Mozilla/5.0 (Macintosh; Intel Mac OS X 10_15_7) AppleWebKit/605.1.15 (KHTML, like Gecko) Version/18.0 Safari/605.1.15" version="24.7.16">
  <diagram name="Page-1" id="CnSHWfpHjE-FhYNSBRt4">
    <mxGraphModel dx="53" dy="30" grid="1" gridSize="10" guides="1" tooltips="1" connect="1" arrows="1" fold="1" page="1" pageScale="1" pageWidth="827" pageHeight="1169" math="1" shadow="0">
      <root>
        <mxCell id="0" />
        <mxCell id="1" parent="0" />
        <mxCell id="0A5LCgP2gtgrY-uinFUt-1" value="&lt;font style=&quot;font-size: 16px;&quot;&gt;&lt;font style=&quot;font-size: 16px;&quot;&gt;Backbone&amp;nbsp;&lt;/font&gt;Network&lt;/font&gt;" style="rounded=1;whiteSpace=wrap;html=1;fillColor=#f5f5f5;fontColor=#333333;strokeColor=#666666;" parent="1" vertex="1">
          <mxGeometry x="30" y="220" width="660" height="80" as="geometry" />
        </mxCell>
        <mxCell id="0A5LCgP2gtgrY-uinFUt-4" value="TIL head for task 1&lt;div&gt;(`C_1`&amp;nbsp;classes)&lt;/div&gt;" style="whiteSpace=wrap;html=1;rounded=1;fillColor=#fff2cc;strokeColor=#d6b656;" parent="1" vertex="1">
          <mxGeometry x="70" y="330" width="150" height="40" as="geometry" />
        </mxCell>
        <mxCell id="0A5LCgP2gtgrY-uinFUt-10" value="TIL head for task 2&lt;div&gt;(`C_2`&amp;nbsp;classes)&lt;/div&gt;" style="whiteSpace=wrap;html=1;rounded=1;fillColor=#d5e8d4;strokeColor=#82b366;" parent="1" vertex="1">
          <mxGeometry x="260" y="330" width="150" height="40" as="geometry" />
        </mxCell>
        <mxCell id="0A5LCgP2gtgrY-uinFUt-16" value="Task 1&lt;div&gt;(`C_1` classes)&lt;/div&gt;" style="whiteSpace=wrap;html=1;rounded=1;fillColor=#fff2cc;strokeColor=#d6b656;glass=0;" parent="1" vertex="1">
          <mxGeometry x="70" y="150" width="150" height="40" as="geometry" />
        </mxCell>
        <mxCell id="U7HxJewr5acx0H720BxA-4" value="CIL head for task t &amp;nbsp; &amp;nbsp; &amp;nbsp; &amp;nbsp; &amp;nbsp; &amp;nbsp;&amp;nbsp;&lt;div&gt;(`C_1+C_2+\cdots+C_t`&amp;nbsp;classes) &amp;nbsp;&amp;nbsp;&lt;/div&gt;" style="whiteSpace=wrap;html=1;rounded=1;fillColor=#dae8fc;strokeColor=#6c8ebf;align=right;" vertex="1" parent="1">
          <mxGeometry x="30" y="380" width="660" height="70" as="geometry" />
        </mxCell>
        <mxCell id="0A5LCgP2gtgrY-uinFUt-20" value="Task 2&lt;div&gt;(`C_2` classes)&lt;/div&gt;" style="whiteSpace=wrap;html=1;rounded=1;fillColor=#d5e8d4;strokeColor=#82b366;glass=0;" parent="1" vertex="1">
          <mxGeometry x="260" y="150" width="150" height="40" as="geometry" />
        </mxCell>
        <mxCell id="U7HxJewr5acx0H720BxA-1" value="Task t&lt;div&gt;(`C_t` classes)&lt;/div&gt;" style="whiteSpace=wrap;html=1;rounded=1;fillColor=#dae8fc;strokeColor=#6c8ebf;glass=0;" vertex="1" parent="1">
          <mxGeometry x="540" y="150" width="150" height="40" as="geometry" />
        </mxCell>
        <mxCell id="U7HxJewr5acx0H720BxA-3" value="TIL head for task t&lt;div&gt;(`C_t`&amp;nbsp;classes)&lt;/div&gt;" style="whiteSpace=wrap;html=1;rounded=1;fillColor=#dae8fc;strokeColor=#6c8ebf;" vertex="1" parent="1">
          <mxGeometry x="540" y="330" width="150" height="40" as="geometry" />
        </mxCell>
        <mxCell id="U7HxJewr5acx0H720BxA-5" value="&lt;font style=&quot;font-size: 20px;&quot;&gt;...&lt;/font&gt;" style="text;html=1;align=center;verticalAlign=middle;whiteSpace=wrap;rounded=0;" vertex="1" parent="1">
          <mxGeometry x="450" y="150" width="60" height="30" as="geometry" />
        </mxCell>
        <mxCell id="U7HxJewr5acx0H720BxA-6" value="&lt;font style=&quot;font-size: 20px;&quot;&gt;...&lt;/font&gt;" style="text;html=1;align=center;verticalAlign=middle;whiteSpace=wrap;rounded=0;" vertex="1" parent="1">
          <mxGeometry x="450" y="328" width="60" height="30" as="geometry" />
        </mxCell>
        <mxCell id="U7HxJewr5acx0H720BxA-7" value="&lt;font style=&quot;font-size: 20px;&quot;&gt;...&lt;/font&gt;" style="text;html=1;align=center;verticalAlign=middle;whiteSpace=wrap;rounded=0;" vertex="1" parent="1">
          <mxGeometry x="450" y="390" width="60" height="30" as="geometry" />
        </mxCell>
        <mxCell id="U7HxJewr5acx0H720BxA-10" value="" style="endArrow=classic;html=1;rounded=0;exitX=0.5;exitY=1;exitDx=0;exitDy=0;fillColor=#fff2cc;strokeColor=#d6b656;" edge="1" parent="1" source="0A5LCgP2gtgrY-uinFUt-16">
          <mxGeometry width="50" height="50" relative="1" as="geometry">
            <mxPoint x="390" y="440" as="sourcePoint" />
            <mxPoint x="145" y="220" as="targetPoint" />
          </mxGeometry>
        </mxCell>
        <mxCell id="U7HxJewr5acx0H720BxA-11" value="" style="endArrow=classic;html=1;rounded=0;exitX=0.5;exitY=1;exitDx=0;exitDy=0;fillColor=#d5e8d4;strokeColor=#82b366;" edge="1" parent="1">
          <mxGeometry width="50" height="50" relative="1" as="geometry">
            <mxPoint x="334.76" y="190" as="sourcePoint" />
            <mxPoint x="334.76" y="220" as="targetPoint" />
          </mxGeometry>
        </mxCell>
        <mxCell id="U7HxJewr5acx0H720BxA-12" value="" style="endArrow=classic;html=1;rounded=0;exitX=0.5;exitY=1;exitDx=0;exitDy=0;fillColor=#dae8fc;strokeColor=#6c8ebf;" edge="1" parent="1">
          <mxGeometry width="50" height="50" relative="1" as="geometry">
            <mxPoint x="614.76" y="190" as="sourcePoint" />
            <mxPoint x="614.76" y="220" as="targetPoint" />
          </mxGeometry>
        </mxCell>
        <mxCell id="U7HxJewr5acx0H720BxA-13" value="" style="endArrow=classic;html=1;rounded=0;exitX=0.5;exitY=1;exitDx=0;exitDy=0;fillColor=#fff2cc;strokeColor=#d6b656;" edge="1" parent="1">
          <mxGeometry width="50" height="50" relative="1" as="geometry">
            <mxPoint x="144.76" y="300" as="sourcePoint" />
            <mxPoint x="144.76" y="330" as="targetPoint" />
          </mxGeometry>
        </mxCell>
        <mxCell id="U7HxJewr5acx0H720BxA-14" value="" style="endArrow=classic;html=1;rounded=0;exitX=0.5;exitY=1;exitDx=0;exitDy=0;fillColor=#d5e8d4;strokeColor=#82b366;" edge="1" parent="1">
          <mxGeometry width="50" height="50" relative="1" as="geometry">
            <mxPoint x="334.76" y="300" as="sourcePoint" />
            <mxPoint x="334.76" y="330" as="targetPoint" />
          </mxGeometry>
        </mxCell>
        <mxCell id="U7HxJewr5acx0H720BxA-15" value="" style="endArrow=classic;html=1;rounded=0;exitX=0.5;exitY=1;exitDx=0;exitDy=0;fillColor=#dae8fc;strokeColor=#6c8ebf;" edge="1" parent="1">
          <mxGeometry width="50" height="50" relative="1" as="geometry">
            <mxPoint x="614.76" y="300" as="sourcePoint" />
            <mxPoint x="614.76" y="330" as="targetPoint" />
          </mxGeometry>
        </mxCell>
        <mxCell id="0A5LCgP2gtgrY-uinFUt-12" value="CIL head for task 2 &amp;nbsp; &amp;nbsp; &amp;nbsp;&lt;div&gt;(`C_1+C_2`&amp;nbsp;classes) &amp;nbsp; &amp;nbsp; &amp;nbsp;&lt;/div&gt;" style="whiteSpace=wrap;html=1;rounded=1;fillColor=#d5e8d4;strokeColor=#82b366;align=right;" parent="1" vertex="1">
          <mxGeometry x="40" y="390" width="374" height="50" as="geometry" />
        </mxCell>
        <mxCell id="U7HxJewr5acx0H720BxA-19" value="CIL head for task 1&lt;div&gt;(`C_1`&amp;nbsp;classes)&lt;/div&gt;" style="whiteSpace=wrap;html=1;rounded=1;fillColor=#fff2cc;strokeColor=#d6b656;" vertex="1" parent="1">
          <mxGeometry x="50" y="395" width="170" height="40" as="geometry" />
        </mxCell>
        <mxCell id="U7HxJewr5acx0H720BxA-20" value="" style="endArrow=classic;html=1;rounded=0;exitX=0.5;exitY=1;exitDx=0;exitDy=0;fillColor=#fff2cc;strokeColor=#d6b656;entryX=0.057;entryY=-0.006;entryDx=0;entryDy=0;entryPerimeter=0;" edge="1" parent="1" target="U7HxJewr5acx0H720BxA-19">
          <mxGeometry width="50" height="50" relative="1" as="geometry">
            <mxPoint x="59.999999999999986" y="300" as="sourcePoint" />
            <mxPoint x="60" y="390" as="targetPoint" />
          </mxGeometry>
        </mxCell>
        <mxCell id="U7HxJewr5acx0H720BxA-21" value="" style="endArrow=classic;html=1;rounded=0;exitX=0.5;exitY=1;exitDx=0;exitDy=0;fillColor=#d5e8d4;strokeColor=#82b366;entryX=0.56;entryY=0.026;entryDx=0;entryDy=0;entryPerimeter=0;" edge="1" parent="1" target="0A5LCgP2gtgrY-uinFUt-12">
          <mxGeometry width="50" height="50" relative="1" as="geometry">
            <mxPoint x="250" y="300" as="sourcePoint" />
            <mxPoint x="250" y="330" as="targetPoint" />
          </mxGeometry>
        </mxCell>
        <mxCell id="U7HxJewr5acx0H720BxA-22" value="" style="endArrow=classic;html=1;rounded=0;exitX=0.5;exitY=1;exitDx=0;exitDy=0;fillColor=#dae8fc;strokeColor=#6c8ebf;entryX=0.758;entryY=-0.027;entryDx=0;entryDy=0;entryPerimeter=0;" edge="1" parent="1" target="U7HxJewr5acx0H720BxA-4">
          <mxGeometry width="50" height="50" relative="1" as="geometry">
            <mxPoint x="530" y="300" as="sourcePoint" />
            <mxPoint x="530" y="330" as="targetPoint" />
          </mxGeometry>
        </mxCell>
      </root>
    </mxGraphModel>
  </diagram>
</mxfile>
